<?xml version="1.0" encoding="utf-8"?>
<!-- Generator: Adobe Illustrator 16.0.0, SVG Export Plug-In . SVG Version: 6.00 Build 0)  -->
<!DOCTYPE svg PUBLIC "-//W3C//DTD SVG 1.1//EN" "http://www.w3.org/Graphics/SVG/1.1/DTD/svg11.dtd" [
	<!ENTITY ns_flows "http://ns.adobe.com/Flows/1.0/">
	<!ENTITY ns_extend "http://ns.adobe.com/Extensibility/1.0/">
	<!ENTITY ns_ai "http://ns.adobe.com/AdobeIllustrator/10.0/">
	<!ENTITY ns_graphs "http://ns.adobe.com/Graphs/1.0/">
]>
<svg version="1.1" id="Layer_1" xmlns:x="&ns_extend;" xmlns:i="&ns_ai;" xmlns:graph="&ns_graphs;"
	 xmlns="http://www.w3.org/2000/svg" xmlns:xlink="http://www.w3.org/1999/xlink" xmlns:a="http://ns.adobe.com/AdobeSVGViewerExtensions/3.0/"
	 x="0px" y="0px" width="864px" height="864px" viewBox="0 0 864 864" enable-background="new 0 0 864 864" xml:space="preserve">
<path d="M842.392,444.754c0.74-90.916-28.807-174.482-89.386-249.589c-58.251-72.221-133.93-117.572-224.767-137.221
	c-39.703-8.587-79.889-11.002-120.206-6.67c-109.878,11.806-200.175,60.525-270.143,146.1
	C95.009,249.819,68.213,309.92,56.409,376.576c-2.664,15.042-3.632,30.384-5.414,45.583c-0.229,1.959-0.659,3.895-0.996,5.841
	c0,5.805,0,11.609,0,17.414h0.019c-0.741,90.916,28.807,174.482,89.385,249.59c58.251,72.221,133.93,117.572,224.767,137.221
	c39.703,8.587,79.889,11.002,120.206,6.67c109.878-11.806,200.176-60.525,270.143-146.1
	c42.881-52.445,69.678-112.547,81.481-179.203c2.664-15.041,3.632-30.383,5.413-45.583c0.23-1.959,0.659-3.895,0.996-5.841
	c0-5.805,0-11.609,0-17.414H842.392z M706.618,225.123c6.543-7.548,9.45-16.231,7.887-26.34c-0.319-2.065,0.734-4.343,1.154-6.523
	c1.99,0.602,4.445,0.663,5.887,1.903c4.994,4.297,10.151,8.582,14.3,13.647c7.27,8.877,14.119,18.136,20.609,27.602
	c4.695,6.85,6.729,14.802,6.311,23.189c-0.218,4.351-1.566,7.666-7.016,7.758c-6.218,0.104-9.674,4.515-11.474,9.699
	c-5.185,14.935-4.782,29.718,2.584,43.991c1.87,3.623,3.861,7.184,6.449,11.983c-13.146,0-24.636-0.792-35.965,0.22
	c-11.707,1.045-21.57,7.388-31.622,15.351c-11.646-13.87-23.416-27.435-34.573-41.487c-2.849-3.588-3.701-8.741-5.58-13.129
	c-0.729-1.706-1.722-4.612-2.659-4.638c-1.825-0.051-4.471,1.053-5.416,2.542c-4.432,6.982-8.562,14.17-12.459,21.467
	c-1.774,3.322-2.756,7.067-4.314,11.195c-2.866-3.748-5.473-6.956-7.816-10.345c-0.668-0.966-0.896-2.49-0.78-3.706
	c2.36-24.794,29.521-41.458,52.977-32.559c8.36,3.172,11.451,10.317,8.57,20.611c-0.839,2.999-2.352,5.851-3.84,8.617
	c-3.065,5.695-2.55,7.823,3.51,9.516c12.698,3.549,24.727,1.96,34.408-7.446c9.558-9.286,9.782-21.012,6.107-32.99
	c-3.822-12.456-13.259-18.727-25.479-20.037c-8.825-0.946-17.868,0.076-26.811,0.33c-2.629,0.075-5.248,0.522-8.346-0.222
	c1.854-1.12,3.612-2.467,5.583-3.32c7.778-3.368,15.659-6.501,23.438-9.872C691.504,238.117,699.947,232.818,706.618,225.123z
	 M707.039,509.178c4.392-9.123,6.527-18.873,6.174-29.005c-0.502-14.356-9.244-23.495-23.521-25.019
	c-13.462-1.436-23.906,5.367-27.248,18.721c-4.957,19.812-1.272,38.262,10.252,55.129c0.656,0.962,1.375,1.882,2.077,2.812
	c0.696,0.921,1.407,1.83,2.229,2.896c-7.39,10.415-17.346,16.512-29.889,17.893c-3.08,0.339-6.723-0.595-9.475-2.099
	c-3.33-1.819-4.819-4.627-2.509-9.083c11.187-21.578,18.156-44.494,21.513-68.623c1.676-12.043,10.768-18.354,21.463-21.19
	c12.82-3.4,25.773-2.231,38.008,3.522c8.65,4.068,13.777,10.998,15.121,20.34c1.16,8.076-0.109,15.422-9.01,18.967
	c-0.831,0.331-1.433,1.238-2.59,2.285c6.582,6.16,14.066,5.771,21.594,4.23c10.061-2.058,15.926-8.316,17.578-18.551
	c2.17-13.432-1.67-24.012-13.994-31.205c2.355,0.714,4.7,1.469,7.07,2.133c4.952,1.389,9.868,2.964,14.89,4.039
	c8.499,1.819,16.073,0.098,22.561-6.156c1.515-1.459,4.717-2.775,6.28-2.115c1.516,0.64,2.751,3.932,2.691,6.018
	c-0.832,28.889-11.729,53.821-31.46,74.57c-18.26,19.2-51.499,19.477-71.254,1.429C699.416,523.828,703.459,516.613,707.039,509.178
	z M685.645,521.449c-8.178-12.904-12.912-25.73-8.42-40.369c0.807-2.631,2.996-5.271,5.263-6.932
	c5.675-4.154,12.104-1.699,12.985,5.252C697.347,494.182,693.508,507.846,685.645,521.449z M641.523,444.754
	c-0.037,108.176-87.23,195.406-195.462,195.505c-107.867,0.099-195.275-87.017-195.677-194.845h0.502
	c0.037-108.175,87.23-195.406,195.462-195.505c107.867-0.099,195.275,87.017,195.677,194.845H641.523z M505.939,660.691
	c-10.427-2.182-20.854-2.404-31.158,0.507c-12.602,3.56-19.286,13.198-18.422,26.106c0.906,13.531,8.956,22.646,22.035,24.293
	c10.658,1.342,20.929-0.826,30.596-5.275c7.842-3.609,15.41-7.814,23.632-12.027c7.29,8.504,11.852,18.664,12.716,30.205
	c1.402,18.701-4.953,34.297-19.808,46.137c-20.092,16.018-42.674,25.649-68.597,26.393c-2.249,0.064-5.357-1.102-6.537-2.775
	c-0.766-1.085,0.658-4.715,2.121-6.201c7.79-7.908,7.943-17.18,5.34-26.969c-1.571-5.907-3.579-11.699-5.391-17.543
	c6.715,11.693,16.936,15.961,29.98,14.234c9.99-1.32,17.072-6.355,19.5-16.594c1.875-7.908,2.414-15.671-3.809-22.828
	c-1.08,1.186-2.15,1.87-2.496,2.818c-3.188,8.77-11.576,10.242-20.092,8.55c-13.063-2.597-19.665-11.78-22.336-24.046
	c-3.233-14.855-3.955-29.496,6.836-42.135c4.143-4.852,9.221-7.65,15.799-8.52c23.102-3.052,45.055-10.014,65.852-20.566
	c5.84-2.965,10.58-1.169,11.574,5.322c0.678,4.418,0.283,9.346-0.986,13.646c-2.695,9.137-7.949,16.762-16.423,22.277
	C527.11,668.296,517.23,663.055,505.939,660.691z M522.745,684.093c-12.062,8.034-24.708,10.317-37.737,10.798
	c-6.639,0.246-10.521-2.493-11.383-6.768c-0.923-4.582,2.625-9.974,8.35-12.122c10.319-3.872,20.273-1.364,29.993,2.357
	C515.457,679.695,518.627,681.867,522.745,684.093z M381.202,705.598c8.626,4.27,17.885,6.303,27.469,6.383
	c14.97,0.125,24.405-7.887,26.682-22.254c2.382-15.031-6.4-26.881-22.072-29.504c-20.07-3.36-38.343,0.834-54.53,13.396
	c-0.782,0.605-1.57,1.204-2.295,1.76c-10.736-5.525-19.75-21.757-18.196-33.277c0.352-2.611,1.796-5.293,3.393-7.459
	c1.688-2.292,4.044-2.643,6.998-1.104c22.025,11.475,45.412,18.479,70.03,22.01c11.501,1.649,17.648,10.742,20.344,21.087
	c3.384,12.986,2.379,26.14-3.605,38.464c-5.06,10.422-14.96,15.916-26.48,15.055c-5.136-0.385-9.288-2.363-11.638-7.287
	c-0.685-1.438-1.664-2.733-3.079-5.013c-6.48,7.519-5.942,15.148-4.245,22.89c1.98,9.035,7.612,14.561,16.683,16.452
	c13.854,2.888,25.058-0.666,32.478-13.478c-1.986,7.459-4.246,14.857-5.886,22.393c-1.81,8.32,0.168,15.721,6.287,22.039
	c1.447,1.494,2.709,4.786,2.006,6.295c-0.711,1.522-3.994,2.656-6.107,2.59c-28.688-0.899-53.465-11.689-74.172-31.227
	c-19.48-18.379-19.91-52.621-1.608-71.46C366.826,698.107,373.938,702.004,381.202,705.598z M369.318,684.322
	c12.73-8.201,25.381-12.52,39.702-8.699c2.548,0.68,5.11,2.607,6.887,4.641c5.099,5.832,2.663,13.131-5.028,13.992
	C396.31,695.889,382.739,692.33,369.318,684.322z M229.842,505.215c2.358-10.906,2.652-21.856-0.633-32.597
	c-3.791-12.394-13.817-18.75-26.752-17.474c-13.382,1.32-21.946,9.322-23.421,22.347c-1.249,11.028,1.146,21.559,5.802,31.493
	c3.509,7.484,7.606,14.693,11.441,22.025c-18.214,18.291-53.061,17.89-71.418-1.551c-19.417-20.563-30.118-45.217-31.274-73.665
	c-0.093-2.269,1.015-5.766,2.629-6.578c1.503-0.757,5.016,0.693,6.626,2.235c7.684,7.359,16.633,7.691,26.088,5.27
	c6.083-1.559,12.03-3.643,18.336-5.236c-7.479,4.729-13.326,10.495-14.357,19.814c-0.992,8.973,0.003,17.412,6.604,24.137
	c7.45,7.588,27.393,9.037,32.61,0.836c-1.294-0.883-2.513-1.973-3.931-2.634c-5.529-2.577-7.574-7.19-7.756-12.907
	c-0.27-8.456,2.646-15.59,8.892-21.383c11.284-10.467,42.853-13.457,55.842-2.257c5.624,4.85,9.485,10.068,10.534,17.862
	c3.082,22.893,9.941,44.718,20.49,65.328c3.07,6,1.042,10.658-5.676,11.859c-3.343,0.597-7.065,0.628-10.333-0.2
	c-10.296-2.61-18.913-7.981-25.252-17.36C222.234,526.007,227.447,516.29,229.842,505.215z M206.531,521.239
	c-6.427-9.246-8.938-18.938-10.059-29.035c-0.455-4.091-0.656-8.336-0.091-12.388c1.033-7.412,7.783-10.047,13.591-5.318
	c2.203,1.794,4.322,4.499,5.041,7.176C218.86,495.998,214.443,508.653,206.531,521.239z M185.371,380.991
	c-4.392,9.122-6.528,18.872-6.174,29.004c0.501,14.356,9.245,23.495,23.522,25.019c13.461,1.436,23.906-5.367,27.248-18.721
	c4.958-19.812,1.272-38.261-10.251-55.129c-0.657-0.961-1.375-1.881-2.078-2.812c-0.696-0.921-1.407-1.831-2.229-2.896
	c7.389-10.416,17.345-16.512,29.889-17.893c3.08-0.339,6.722,0.594,9.474,2.098c3.331,1.819,4.819,4.627,2.509,9.083
	c-11.186,21.578-18.156,44.495-21.513,68.623c-1.676,12.043-10.767,18.354-21.462,21.19c-12.821,3.4-25.774,2.231-38.008-3.522
	c-8.65-4.068-13.778-10.998-15.121-20.34c-1.161-8.076,0.109-15.421,9.01-18.967c0.831-0.331,1.432-1.238,2.59-2.285
	c-6.583-6.161-14.066-5.771-21.594-4.231c-10.061,2.058-15.926,8.317-17.579,18.552c-2.169,13.431,1.671,24.012,13.995,31.205
	c-2.356-0.714-4.7-1.469-7.07-2.133c-4.953-1.389-9.869-2.964-14.89-4.039c-8.499-1.819-16.073-0.097-22.561,6.156
	c-1.514,1.459-4.717,2.775-6.28,2.115c-1.516-0.64-2.751-3.932-2.691-6.018c0.832-28.889,11.728-53.821,31.459-74.57
	c18.26-19.201,51.499-19.477,71.254-1.429C192.994,366.34,188.951,373.554,185.371,380.991z M206.766,368.719
	c8.177,12.903,12.913,25.73,8.42,40.369c-0.807,2.63-2.997,5.271-5.263,6.931c-5.675,4.155-12.104,1.699-12.985-5.252
	C195.063,395.987,198.902,382.322,206.766,368.719z M386.47,229.476c10.427,2.183,20.854,2.404,31.159-0.506
	c12.601-3.56,19.286-13.198,18.422-26.106c-0.906-13.531-8.956-22.646-22.036-24.293c-10.657-1.342-20.928,0.826-30.596,5.275
	c-7.842,3.609-15.41,7.814-23.631,12.027c-7.291-8.504-11.852-18.664-12.716-30.205c-1.401-18.702,4.954-34.297,19.808-46.138
	c20.092-16.017,42.674-25.649,68.597-26.393c2.249-0.064,5.357,1.103,6.537,2.776c0.766,1.085-0.658,4.715-2.121,6.201
	c-7.79,7.909-7.943,17.18-5.34,26.969c1.571,5.908,3.579,11.699,5.391,17.543c-6.715-11.693-16.936-15.96-29.981-14.235
	c-9.99,1.321-17.072,6.356-19.499,16.594c-1.875,7.908-2.415,15.671,3.809,22.829c1.08-1.187,2.15-1.871,2.495-2.819
	c3.188-8.77,11.577-10.242,20.092-8.55c13.063,2.597,19.665,11.781,22.336,24.046c3.233,14.855,3.955,29.496-6.836,42.135
	c-4.143,4.852-9.221,7.65-15.798,8.519c-23.102,3.052-45.056,10.014-65.852,20.567c-5.84,2.964-10.581,1.168-11.575-5.323
	c-0.677-4.418-0.282-9.346,0.986-13.646c2.695-9.137,7.95-16.762,16.423-22.277C365.3,221.872,375.18,227.113,386.47,229.476z
	 M369.665,206.075c12.062-8.035,24.708-10.317,37.737-10.798c6.64-0.245,10.521,2.494,11.383,6.769
	c0.923,4.582-2.625,9.973-8.349,12.122c-10.319,3.873-20.274,1.364-29.993-2.357C376.953,210.473,373.783,208.3,369.665,206.075z
	 M511.208,184.57c-8.626-4.269-17.885-6.302-27.469-6.382c-14.97-0.125-24.405,7.887-26.682,22.253
	c-2.382,15.031,6.4,26.881,22.072,29.505c20.07,3.36,38.343-0.834,54.53-13.396c0.782-0.606,1.57-1.205,2.295-1.76
	c10.736,5.526,19.75,21.757,18.196,33.278c-0.352,2.611-1.796,5.292-3.393,7.458c-1.688,2.292-4.044,2.643-6.998,1.104
	c-22.025-11.476-45.412-18.479-70.03-22.01c-11.501-1.65-17.648-10.743-20.344-21.087c-3.384-12.986-2.379-26.14,3.605-38.464
	c5.06-10.422,14.96-15.915,26.48-15.054c5.136,0.384,9.288,2.363,11.638,7.287c0.685,1.437,1.664,2.733,3.079,5.012
	c6.48-7.519,5.942-15.148,4.245-22.89c-1.98-9.035-7.612-14.561-16.683-16.452c-13.854-2.888-25.058,0.666-32.478,13.478
	c1.986-7.459,4.246-14.858,5.886-22.392c1.81-8.321-0.168-15.722-6.287-22.04c-1.447-1.495-2.709-4.786-2.006-6.294
	c0.711-1.523,3.994-2.657,6.107-2.591c28.688,0.9,53.465,11.689,74.172,31.227c19.48,18.38,19.91,52.622,1.608,71.46
	C525.584,192.061,518.472,188.164,511.208,184.57z M523.092,205.846c-12.73,8.202-25.381,12.519-39.702,8.699
	c-2.548-0.68-5.11-2.608-6.887-4.64c-5.099-5.833-2.663-13.131,5.028-13.993C496.101,194.28,509.671,197.838,523.092,205.846z
	 M796.194,440.952c-1.503,0.757-5.016-0.693-6.626-2.235c-7.684-7.359-16.633-7.692-26.088-5.27
	c-6.083,1.559-12.03,3.643-18.336,5.236c7.479-4.729,13.326-10.495,14.357-19.814c0.992-8.973-0.003-17.412-6.604-24.137
	c-7.45-7.589-27.393-9.038-32.61-0.836c1.294,0.882,2.513,1.972,3.931,2.633c5.529,2.577,7.574,7.19,7.756,12.907
	c0.27,8.456-2.646,15.59-8.892,21.382c-11.284,10.467-42.853,13.458-55.842,2.257c-5.624-4.85-9.485-10.068-10.534-17.862
	c-3.082-22.893-9.941-44.718-20.49-65.329c-3.07-6-1.042-10.658,5.676-11.858c3.343-0.597,7.065-0.628,10.333,0.2
	c10.296,2.61,18.913,7.981,25.252,17.36c-7.302,8.573-12.515,18.29-14.909,29.365c-2.358,10.907-2.652,21.856,0.633,32.597
	c3.791,12.394,13.817,18.75,26.752,17.474c13.382-1.32,21.946-9.322,23.421-22.347c1.249-11.029-1.146-21.559-5.802-31.493
	c-3.509-7.485-7.606-14.694-11.441-22.025c18.214-18.292,53.061-17.89,71.418,1.551c19.417,20.563,30.118,45.216,31.274,73.665
	C798.916,436.643,797.809,440.14,796.194,440.952z M685.879,368.929c6.427,9.246,8.938,18.938,10.059,29.035
	c0.455,4.091,0.656,8.336,0.091,12.388c-1.033,7.412-7.783,10.047-13.591,5.319c-2.203-1.794-4.322-4.5-5.041-7.176
	C673.55,394.17,677.967,381.515,685.879,368.929z M625.811,134.357c0.197-4.305,3.615-4.867,6.772-5.131
	c8.579-0.718,16.844,1.256,23.713,6.12c12.213,8.648,23.96,17.977,35.609,27.382c2.854,2.305,4.744,5.906,6.741,9.121
	c0.758,1.22,1.28,3.562,0.628,4.43c-0.761,1.013-2.915,1.287-4.479,1.329c-4.132,0.111-8.36-0.65-12.39-0.025
	c-8.593,1.333-15.209,6.292-20.809,12.786c-7.745,8.984-12.248,19.687-16.601,30.511c-2.442,6.074-5.177,12.031-7.78,18.04
	c-0.567-0.158-1.136-0.316-1.704-0.474c0.639-5.798,1.769-11.594,1.79-17.394c0.027-7.263,0.058-14.734-1.526-21.751
	c-3.696-16.371-19.125-25.791-36.208-23.05c-15.54,2.494-26.133,16.257-24.971,32.773c0.253,3.604,0.976,7.271,2.127,10.693
	c1.601,4.759,3.47,5.104,7.944,3.005c4.174-1.958,8.431-4.028,12.88-5.046c9.125-2.089,15.695,2.25,18.12,11.213
	c6.582,24.328-8.309,47.326-33.006,50.845c-1.331,0.189-3.046-0.126-4.137-0.864c-3.287-2.223-6.355-4.771-9.545-7.22
	c8.567-4.052,16.759-7.654,24.666-11.796c3.32-1.739,6.284-4.38,8.95-7.067c1.888-1.902,2.713-5.188-1.059-5.728
	c-13.787-1.974-23.161-11.206-32.983-19.571c-8.104-6.902-15.664-14.44-23.885-22.087c16.958-19.011,18.282-41.695,15.119-66.517
	c3.911,1.959,6.916,3.216,9.672,4.886c13.371,8.103,27.694,8.769,42.397,5.225C619.396,147.179,625.401,143.313,625.811,134.357z
	 M294.925,109.978c4.574-7.631,11.912-12.128,19.875-15.19c30.102-11.572,61.257-18.916,93.388-21.837
	c12.754-1.16,25.562-1.741,38.345-2.585c44.729,0.534,88.087,8.12,129.915,23.847c5.939,2.233,11.582,5.937,16.48,10.018
	c3.232,2.692,5.714,7,7.079,11.072c3.026,9.021-2.604,16.963-12.126,16.392c-6.247-0.375-12.751-2.452-18.403-5.253
	c-7.253-3.594-13.784-8.654-20.596-13.127c-21.08-13.844-42.824-26.871-67.68-32.089c-34.676-7.28-69.002-5.545-100.977,11.62
	c-16.376,8.792-31.909,19.143-48.064,28.366c-7.001,3.998-14.403,7.536-22.013,10.15c-5.931,2.038-12.128,0.678-16.061-4.942
	C290.246,120.927,291.798,115.196,294.925,109.978z M195.147,170.294c4.303-4.986,8.595-10.131,13.658-14.281
	c8.875-7.272,18.107-14.159,27.591-20.618c6.85-4.666,14.815-6.67,23.213-6.25c4.444,0.223,7.558,1.695,7.686,7.073
	c0.148,6.189,4.575,9.639,9.754,11.441c14.755,5.134,29.387,4.738,43.54-2.393c3.787-1.908,7.483-3.994,12.53-6.7
	c-3.147,25.266-1.95,47.819,15.623,67.424c-13.936,11.742-27.335,23.438-41.248,34.486c-3.713,2.949-9.02,3.866-13.546,5.827
	c-1.708,0.739-4.586,1.729-4.633,2.713c-0.086,1.804,1.043,4.463,2.529,5.409c6.978,4.441,14.158,8.589,21.455,12.488
	c3.313,1.771,7.064,2.725,11.162,4.253c-3.754,2.895-6.925,5.544-10.332,7.845c-1.074,0.726-2.839,0.891-4.188,0.677
	c-20.954-3.315-33.206-17.206-33.768-38.654c-0.12-4.578,0.445-9.353,1.705-13.748c2.169-7.569,8.498-11.419,16.186-9.883
	c4.479,0.895,8.883,2.68,13.01,4.699c5.773,2.825,7.559,2.397,9.616-3.498c6.049-17.339-3.587-37.599-19.775-41.576
	c-20.128-4.944-38.099,6.05-40.655,25.919c-1.171,9.101,0.06,18.516,0.294,27.787c0.062,2.461,0.467,4.915-0.31,7.841
	c-1.113-1.846-2.451-3.595-3.3-5.556c-3.367-7.773-6.045-15.896-10.001-23.347c-4.021-7.573-8.588-15.062-14.103-21.584
	c-7.418-8.772-17.459-12.329-29.142-10.806c-2.084,0.271-4.332-0.704-6.504-1.103C193.813,174.191,193.898,171.741,195.147,170.294z
	 M136.243,235.665c8.222-11.7,17.057-22.991,26.065-34.105c2.732-3.372,6.78-5.743,10.438-8.262
	c1.184-0.815,3.869-1.381,4.425-0.763c1.037,1.152,1.308,3.243,1.379,4.965c0.169,4.125-0.488,8.345,0.139,12.378
	c1.252,8.057,5.425,14.995,11.992,19.513c8.427,5.797,17.521,10.68,26.583,15.475c5.412,2.864,11.339,4.741,16.976,7.197
	c1.868,0.814,3.552,2.052,5.321,3.096c-0.131,0.4-0.261,0.801-0.392,1.202c-5.341-0.614-10.683-1.217-16.022-1.844
	c-8.882-1.043-17.627-0.511-26.114,2.466c-13.959,4.897-21.896,18.847-19.862,34.761c1.811,14.171,12.923,24.624,27.809,25.22
	c5.511,0.221,11.177-0.961,16.612-2.203c3.631-0.83,4.114-3.606,2.433-7.072c-2.083-4.291-4.255-8.688-5.329-13.288
	c-2.167-9.281,2.459-16.115,11.607-18.296c24.28-5.79,45.158,7.322,49.953,31.636c0.436,2.207-0.531,5.027-1.662,7.123
	c-1.555,2.883-3.888,5.346-6.456,8.739c-0.874-2.361-1.352-4.2-2.199-5.85c-4.459-8.681-8.8-17.438-13.696-25.869
	c-1.093-1.881-4.251-2.563-6.459-3.797c-0.902,2.018-1.736,4.069-2.719,6.047c-2.78,5.6-4.775,11.849-8.603,16.621
	c-9.987,12.451-20.786,24.251-31.707,36.824c-19.34-17.337-42.033-18.579-66.888-15.468c1.92-3.888,3.132-6.893,4.798-9.622
	c8.045-13.183,8.807-27.335,5.442-41.901c-1.831-7.927-5.682-14.181-15.16-14.626c-4.247-0.199-4.559-3.95-4.785-7.062
	C129.554,250.503,131.499,242.416,136.243,235.665z M116.002,598.508c-11.178-3.08-16.719-12.094-20.45-21.724
	c-13.427-34.653-21.095-70.649-23.246-107.786c-0.241-4.156-0.622-8.307-0.758-12.465c-0.129-3.923-0.033-7.854-0.029-11.779h-0.165
	c0.581-44.5,8.158-87.636,23.813-129.263c2.18-5.796,6.143-10.951,9.517-16.251c1.036-1.627,2.748-2.904,4.343-4.079
	c6.217-4.577,13.388-5.429,18.181-2.296c4.907,3.208,7.377,9.833,4.785,17.476c-2.477,7.298-5.728,14.594-10.01,20.968
	c-12.832,19.098-24.896,38.545-33.711,59.889c-6.972,16.881-9.012,34.419-9.652,52.61c-0.011,0.317-0.012,0.632-0.015,0.946h-0.826
	c-0.286,38.187,15.211,71.205,36.186,102.625c5.163,7.736,10.416,15.49,14.643,23.74c2.331,4.552,3.484,10.128,3.628,15.285
	C132.491,595.676,124.927,600.967,116.002,598.508z M185.792,665.045c-6.543,7.548-9.45,16.231-7.887,26.34
	c0.319,2.066-0.734,4.344-1.154,6.523c-1.99-0.602-4.445-0.663-5.887-1.902c-4.994-4.297-10.151-8.582-14.3-13.647
	c-7.27-8.877-14.119-18.136-20.609-27.602c-4.695-6.85-6.729-14.802-6.311-23.189c0.218-4.351,1.566-7.666,7.016-7.758
	c6.218-0.104,9.674-4.515,11.474-9.699c5.185-14.935,4.782-29.718-2.584-43.991c-1.87-3.623-3.861-7.184-6.449-11.983
	c13.146,0,24.636,0.792,35.965-0.22c11.707-1.045,21.57-7.388,31.622-15.352c11.646,13.871,23.416,27.436,34.573,41.488
	c2.849,3.588,3.701,8.74,5.58,13.129c0.729,1.705,1.722,4.611,2.659,4.638c1.825,0.051,4.471-1.054,5.416-2.542
	c4.432-6.982,8.562-14.17,12.459-21.468c1.774-3.322,2.756-7.067,4.314-11.194c2.866,3.747,5.473,6.955,7.816,10.345
	c0.668,0.966,0.896,2.489,0.78,3.706c-2.36,24.794-29.521,41.458-52.977,32.559c-8.36-3.172-11.451-10.316-8.57-20.611
	c0.839-2.998,2.352-5.851,3.84-8.617c3.065-5.694,2.55-7.822-3.51-9.516c-12.698-3.549-24.727-1.961-34.408,7.446
	c-9.558,9.286-9.782,21.012-6.107,32.989c3.822,12.456,13.259,18.728,25.479,20.037c8.825,0.946,17.868-0.076,26.811-0.33
	c2.629-0.074,5.248-0.522,8.346,0.223c-1.854,1.119-3.612,2.467-5.583,3.319c-7.778,3.368-15.659,6.501-23.438,9.872
	C200.906,652.051,192.463,657.35,185.792,665.045z M266.6,755.811c-0.197,4.306-3.615,4.867-6.772,5.132
	c-8.579,0.718-16.844-1.256-23.713-6.12c-12.213-8.648-23.96-17.977-35.609-27.383c-2.854-2.305-4.744-5.906-6.741-9.12
	c-0.758-1.22-1.28-3.562-0.628-4.431c0.761-1.012,2.915-1.286,4.479-1.328c4.132-0.111,8.36,0.649,12.39,0.024
	c8.593-1.333,15.209-6.292,20.809-12.786c7.745-8.984,12.248-19.688,16.601-30.512c2.442-6.074,5.177-12.03,7.78-18.039
	c0.567,0.158,1.136,0.316,1.704,0.474c-0.639,5.798-1.769,11.595-1.79,17.394c-0.027,7.264-0.058,14.734,1.526,21.752
	c3.696,16.371,19.125,25.791,36.208,23.05c15.54-2.493,26.133-16.257,24.971-32.772c-0.253-3.604-0.976-7.271-2.127-10.693
	c-1.601-4.759-3.47-5.104-7.944-3.006c-4.174,1.958-8.431,4.028-12.88,5.047c-9.125,2.089-15.695-2.25-18.12-11.213
	c-6.582-24.328,8.309-47.326,33.006-50.846c1.331-0.189,3.046,0.127,4.137,0.864c3.287,2.224,6.355,4.771,9.545,7.22
	c-8.567,4.053-16.759,7.654-24.666,11.797c-3.32,1.738-6.284,4.38-8.95,7.066c-1.888,1.902-2.713,5.188,1.059,5.729
	c13.787,1.973,23.161,11.205,32.983,19.57c8.104,6.902,15.664,14.44,23.885,22.087c-16.958,19.011-18.282,41.695-15.119,66.517
	c-3.911-1.959-6.916-3.217-9.672-4.887c-13.371-8.102-27.694-8.769-42.397-5.225C273.014,742.989,267.009,746.855,266.6,755.811z
	 M597.484,780.19c-4.573,7.632-11.912,12.128-19.875,15.19c-30.102,11.571-61.257,18.915-93.388,21.836
	c-12.755,1.16-25.562,1.741-38.345,2.586c-44.729-0.534-88.087-8.121-129.915-23.848c-5.939-2.233-11.582-5.938-16.48-10.018
	c-3.232-2.691-5.714-7-7.079-11.072c-3.026-9.021,2.604-16.963,12.126-16.391c6.247,0.375,12.751,2.451,18.403,5.252
	c7.253,3.594,13.784,8.654,20.596,13.128c21.08,13.844,42.824,26.87,67.68,32.089c34.676,7.28,69.002,5.546,100.977-11.619
	c16.377-8.791,31.909-19.143,48.064-28.366c7.002-3.997,14.403-7.536,22.013-10.149c5.931-2.038,12.128-0.678,16.061,4.941
	C602.164,769.241,600.611,774.973,597.484,780.19z M697.264,719.874c-4.304,4.986-8.596,10.132-13.658,14.28
	c-8.875,7.272-18.107,14.159-27.592,20.619c-6.85,4.666-14.814,6.67-23.213,6.249c-4.443-0.223-7.557-1.694-7.686-7.073
	c-0.148-6.189-4.574-9.639-9.754-11.441c-14.756-5.135-29.388-4.738-43.541,2.393c-3.786,1.908-7.482,3.994-12.529,6.7
	c3.146-25.267,1.949-47.819-15.623-67.424c13.936-11.742,27.335-23.438,41.248-34.486c3.713-2.948,9.02-3.866,13.546-5.827
	c1.708-0.738,4.587-1.729,4.634-2.713c0.086-1.804-1.044-4.463-2.529-5.408c-6.979-4.441-14.158-8.589-21.455-12.488
	c-3.313-1.771-7.064-2.725-11.162-4.253c3.754-2.895,6.926-5.544,10.332-7.845c1.074-0.726,2.84-0.891,4.188-0.678
	c20.954,3.315,33.206,17.207,33.768,38.654c0.12,4.578-0.445,9.354-1.704,13.748c-2.169,7.568-8.497,11.418-16.187,9.883
	c-4.479-0.896-8.883-2.68-13.01-4.699c-5.773-2.825-7.559-2.398-9.615,3.497c-6.05,17.339,3.586,37.599,19.775,41.576
	c20.127,4.944,38.099-6.05,40.654-25.919c1.172-9.102-0.059-18.517-0.293-27.787c-0.062-2.461-0.468-4.914,0.309-7.842
	c1.113,1.847,2.451,3.596,3.301,5.557c3.366,7.773,6.045,15.896,10,23.348c4.021,7.572,8.588,15.062,14.104,21.584
	c7.418,8.771,17.459,12.328,29.143,10.806c2.084-0.271,4.331,0.704,6.504,1.103C698.598,715.977,698.512,718.427,697.264,719.874z
	 M756.167,654.503c-8.222,11.7-17.058,22.991-26.065,34.105c-2.732,3.372-6.779,5.743-10.438,8.263
	c-1.184,0.814-3.869,1.381-4.425,0.763c-1.037-1.151-1.308-3.243-1.379-4.965c-0.169-4.125,0.488-8.345-0.139-12.378
	c-1.252-8.058-5.425-14.995-11.992-19.514c-8.427-5.797-17.521-10.68-26.583-15.475c-5.412-2.863-11.34-4.74-16.977-7.196
	c-1.867-0.813-3.552-2.052-5.32-3.096c0.131-0.4,0.262-0.802,0.393-1.202c5.34,0.613,10.682,1.217,16.021,1.844
	c8.883,1.043,17.627,0.511,26.114-2.467c13.959-4.896,21.896-18.846,19.862-34.761c-1.811-14.171-12.923-24.624-27.809-25.22
	c-5.512-0.222-11.178,0.961-16.613,2.202c-3.631,0.829-4.113,3.606-2.432,7.072c2.082,4.291,4.254,8.688,5.328,13.288
	c2.167,9.28-2.459,16.115-11.607,18.296c-24.28,5.79-45.158-7.321-49.953-31.636c-0.436-2.207,0.531-5.027,1.662-7.123
	c1.555-2.883,3.889-5.346,6.456-8.739c0.874,2.361,1.352,4.2,2.199,5.85c4.46,8.681,8.8,17.438,13.696,25.869
	c1.093,1.882,4.252,2.563,6.459,3.798c0.902-2.019,1.736-4.07,2.719-6.048c2.781-5.601,4.775-11.849,8.604-16.62
	c9.986-12.451,20.785-24.252,31.707-36.824c19.34,17.337,42.033,18.578,66.888,15.467c-1.92,3.889-3.132,6.894-4.798,9.623
	c-8.045,13.182-8.807,27.334-5.441,41.9c1.83,7.928,5.682,14.182,15.159,14.627c4.247,0.199,4.56,3.949,4.784,7.062
	C762.856,639.664,760.912,647.752,756.167,654.503z M787.727,590.928c-1.035,1.627-2.748,2.904-4.344,4.08
	c-6.217,4.576-13.388,5.428-18.18,2.295c-4.908-3.207-7.378-9.833-4.785-17.475c2.477-7.299,5.728-14.594,10.01-20.969
	c12.832-19.098,24.896-38.545,33.711-59.889c6.973-16.881,9.012-34.42,9.652-52.61c0.012-0.317,0.013-0.632,0.016-0.946h0.826
	c0.286-38.187-15.211-71.205-36.186-102.625c-5.163-7.735-10.416-15.49-14.643-23.74c-2.331-4.552-3.484-10.128-3.628-15.285
	c-0.258-9.272,7.307-14.562,16.231-12.104c11.178,3.08,16.719,12.094,20.45,21.724c13.427,34.653,21.095,70.649,23.246,107.786
	c0.241,4.156,0.622,8.307,0.758,12.465c0.129,3.923,0.033,7.854,0.029,11.779h0.165c-0.581,44.499-8.158,87.636-23.813,129.263
	C795.063,580.473,791.101,585.627,787.727,590.928z"/>
</svg>
